HIERARCHY
ROOT newVegas:Hips
{
	OFFSET 0.000000 96.479958 0.000000
	CHANNELS 6 Xposition Yposition Zposition Xrotation Yrotation Zrotation
	JOINT newVegas:Pelvis
	{
		OFFSET 0.000000 0.000000 0.000000
		CHANNELS 3 Xrotation Yrotation Zrotation
		JOINT newVegas:LeftUpLeg
		{
			OFFSET 18.735201 -5.666702 -4.541200
			CHANNELS 3 Xrotation Yrotation Zrotation
			JOINT newVegas:LeftLeg
			{
				OFFSET -0.021200 -31.938179 0.493100
				CHANNELS 3 Xrotation Yrotation Zrotation
				JOINT newVegas:LeftFoot
				{
					OFFSET 0.021200 -31.938179 -4.336299
					CHANNELS 3 Xrotation Yrotation Zrotation
					JOINT newVegas:LeftToeBase
					{
						OFFSET 0.943001 -26.722000 15.023500
						CHANNELS 3 Xrotation Yrotation Zrotation
						End Site
						{
							OFFSET 0.000000 30.670183 0.000000
						}
					}
				}
				JOINT newVegas:Left_PantLeg
				{
					OFFSET 0.663870 -9.044666 -1.108900
					CHANNELS 3 Xrotation Yrotation Zrotation
					End Site
					{
						OFFSET 1.415995 20.635357 0.000000
					}
				}
			}
		}
		JOINT newVegas:RightUpLeg
		{
			OFFSET -18.735201 -5.666702 -4.541200
			CHANNELS 3 Xrotation Yrotation Zrotation
			JOINT newVegas:RightLeg
			{
				OFFSET 0.018946 -31.938133 0.493100
				CHANNELS 3 Xrotation Yrotation Zrotation
				JOINT newVegas:RightFoot
				{
					OFFSET -0.018946 -31.938126 -4.336299
					CHANNELS 3 Xrotation Yrotation Zrotation
					JOINT newVegas:RightToeBase
					{
						OFFSET -0.943001 -26.722004 15.023500
						CHANNELS 3 Xrotation Yrotation Zrotation
						End Site
						{
							OFFSET 0.000000 30.670187 0.000000
						}
					}
				}
				JOINT newVegas:Right_PantLeg
				{
					OFFSET -0.661674 -9.044716 -1.108900
					CHANNELS 3 Xrotation Yrotation Zrotation
					End Site
					{
						OFFSET -1.415958 20.635269 0.000000
					}
				}
			}
		}
	}
	JOINT newVegas:Spine
	{
		OFFSET 0.000000 10.199997 -0.299500
		CHANNELS 3 Xrotation Yrotation Zrotation
		JOINT newVegas:Spine1
		{
			OFFSET 0.000000 11.900002 -1.516600
			CHANNELS 3 Xrotation Yrotation Zrotation
			JOINT newVegas:Spine2
			{
				OFFSET 0.000000 13.600006 -2.842500
				CHANNELS 3 Xrotation Yrotation Zrotation
				JOINT newVegas:Neck
				{
					OFFSET 0.000000 9.624100 -2.890100
					CHANNELS 3 Xrotation Yrotation Zrotation
					JOINT newVegas:Head
					{
						OFFSET 0.000000 14.068802 -1.351900
						CHANNELS 3 Xrotation Yrotation Zrotation
						JOINT newVegas:Hair_Back
						{
							OFFSET 0.000000 3.231903 -17.524799
							CHANNELS 3 Xrotation Yrotation Zrotation
							End Site
							{
								OFFSET 0.000000 19.849884 0.000000
							}
						}
						JOINT newVegas:Hair_Front
						{
							OFFSET 0.000000 31.260406 4.573800
							CHANNELS 3 Xrotation Yrotation Zrotation
							JOINT newVegas:Hair_Front1
							{
								OFFSET 0.000000 2.284103 11.993300
								CHANNELS 3 Xrotation Yrotation Zrotation
								JOINT newVegas:Hair_Front2
								{
									OFFSET 0.000000 2.284103 11.993300
									CHANNELS 3 Xrotation Yrotation Zrotation
									End Site
									{
										OFFSET 0.000000 12.208862 0.000000
									}
								}
							}
						}
						JOINT newVegas:Jowel
						{
							OFFSET 0.000000 -7.458206 6.864100
							CHANNELS 3 Xrotation Yrotation Zrotation
							End Site
							{
								OFFSET 0.000000 19.849884 0.000000
							}
						}
					}
				}
				JOINT newVegas:LeftShoulder
				{
					OFFSET 15.263000 10.923401 -0.547700
					CHANNELS 3 Xrotation Yrotation Zrotation
					JOINT newVegas:LeftArm
					{
						OFFSET 25.438599 -2.830597 -13.032500
						CHANNELS 3 Xrotation Yrotation Zrotation
						JOINT newVegas:LeftForeArm
						{
							OFFSET 29.960503 0.000000 0.000000
							CHANNELS 3 Xrotation Yrotation Zrotation
							JOINT newVegas:LeftHand
							{
								OFFSET 27.849251 0.000000 0.000000
								CHANNELS 3 Xrotation Yrotation Zrotation
								JOINT newVegas:LeftHandThumb1
								{
									OFFSET 4.487587 -3.305161 6.305391
									CHANNELS 3 Xrotation Yrotation Zrotation
									JOINT newVegas:LeftHandThumb2
									{
										OFFSET 5.480453 -3.164139 3.164143
										CHANNELS 3 Xrotation Yrotation Zrotation
										JOINT newVegas:LeftHandThumb3
										{
											OFFSET 5.159721 -2.978973 2.978967
											CHANNELS 3 Xrotation Yrotation Zrotation
											End Site
											{
												OFFSET 2.494507 5.926697 1.738678
											}
										}
									}
								}
								JOINT newVegas:LeftHandIndex1
								{
									OFFSET 18.578728 -0.527832 5.208049
									CHANNELS 3 Xrotation Yrotation Zrotation
									JOINT newVegas:LeftHandIndex2
									{
										OFFSET 3.192009 0.000000 0.000000
										CHANNELS 3 Xrotation Yrotation Zrotation
										JOINT newVegas:LeftHandIndex3
										{
											OFFSET 3.835129 0.000000 0.000000
											CHANNELS 3 Xrotation Yrotation Zrotation
											End Site
											{
												OFFSET -0.034599 3.816971 0.371180
											}
										}
									}
								}
								JOINT newVegas:LeftHandMiddle1
								{
									OFFSET 18.476105 0.000000 0.000000
									CHANNELS 3 Xrotation Yrotation Zrotation
									JOINT newVegas:LeftHandMiddle2
									{
										OFFSET 3.324875 0.000000 0.000000
										CHANNELS 3 Xrotation Yrotation Zrotation
										JOINT newVegas:LeftHandMiddle3
										{
											OFFSET 4.596550 0.000000 0.000000
											CHANNELS 3 Xrotation Yrotation Zrotation
											End Site
											{
												OFFSET 0.057701 4.578827 0.399218
											}
										}
									}
								}
								JOINT newVegas:LeftHandRing1
								{
									OFFSET 17.732719 0.121887 -4.201567
									CHANNELS 3 Xrotation Yrotation Zrotation
									JOINT newVegas:LeftHandRing2
									{
										OFFSET 2.733170 0.000000 0.000000
										CHANNELS 3 Xrotation Yrotation Zrotation
										JOINT newVegas:LeftHandRing3
										{
											OFFSET 3.178268 0.000000 0.000000
											CHANNELS 3 Xrotation Yrotation Zrotation
											End Site
											{
												OFFSET 0.119102 3.170624 0.185394
											}
										}
									}
								}
								JOINT newVegas:LeftHandPinky1
								{
									OFFSET 15.989624 -0.606689 -7.535461
									CHANNELS 3 Xrotation Yrotation Zrotation
									JOINT newVegas:LeftHandPinky2
									{
										OFFSET 2.538986 0.000000 0.000000
										CHANNELS 3 Xrotation Yrotation Zrotation
										JOINT newVegas:LeftHandPinky3
										{
											OFFSET 2.593102 0.000000 0.000000
											CHANNELS 3 Xrotation Yrotation Zrotation
											End Site
											{
												OFFSET -0.150902 2.584198 0.152708
											}
										}
									}
								}
							}
							JOINT newVegas:Left_Sleeve
							{
								OFFSET 0.267448 -0.649796 0.577675
								CHANNELS 3 Xrotation Yrotation Zrotation
								End Site
								{
									OFFSET 0.000000 15.991241 0.000000
								}
							}
							JOINT newVegas:Left_CapeC
							{
								OFFSET 15.715958 -8.608795 -6.935905
								CHANNELS 3 Xrotation Yrotation Zrotation
								JOINT newVegas:Left_CapeC1
								{
									OFFSET 0.000000 -8.688499 0.000000
									CHANNELS 3 Xrotation Yrotation Zrotation
									End Site
									{
										OFFSET 0.000000 8.688499 0.000000
									}
								}
							}
						}
						JOINT newVegas:Left_CapeB
						{
							OFFSET 26.118385 -8.608795 -7.079235
							CHANNELS 3 Xrotation Yrotation Zrotation
							JOINT newVegas:Left_CapeB1
							{
								OFFSET 0.000000 -8.688499 0.000000
								CHANNELS 3 Xrotation Yrotation Zrotation
								End Site
								{
									OFFSET 0.000000 8.688499 0.000000
								}
							}
						}
						JOINT newVegas:Left_CapeA
						{
							OFFSET 5.115639 -8.608795 -10.395809
							CHANNELS 3 Xrotation Yrotation Zrotation
							JOINT newVegas:Left_CapeA1
							{
								OFFSET 0.000000 -8.688499 0.000000
								CHANNELS 3 Xrotation Yrotation Zrotation
								End Site
								{
									OFFSET 0.000000 8.688499 0.000000
								}
							}
						}
					}
				}
				JOINT newVegas:RightShoulder
				{
					OFFSET -15.263000 10.923401 -0.547700
					CHANNELS 3 Xrotation Yrotation Zrotation
					JOINT newVegas:RightArm
					{
						OFFSET -25.438599 -2.830597 -13.032500
						CHANNELS 3 Xrotation Yrotation Zrotation
						JOINT newVegas:RightForeArm
						{
							OFFSET -29.960503 0.000000 0.000000
							CHANNELS 3 Xrotation Yrotation Zrotation
							JOINT newVegas:RightHand
							{
								OFFSET -27.849251 0.000000 0.000000
								CHANNELS 3 Xrotation Yrotation Zrotation
								JOINT newVegas:RightHandThumb1
								{
									OFFSET -4.487587 -3.305161 6.305391
									CHANNELS 3 Xrotation Yrotation Zrotation
									JOINT newVegas:RightHandThumb2
									{
										OFFSET -5.480453 -3.164139 3.164143
										CHANNELS 3 Xrotation Yrotation Zrotation
										JOINT newVegas:RightHandThumb3
										{
											OFFSET -5.159721 -2.978973 2.978967
											CHANNELS 3 Xrotation Yrotation Zrotation
											End Site
											{
												OFFSET -2.494507 5.926697 1.738678
											}
										}
									}
								}
								JOINT newVegas:RightHandIndex1
								{
									OFFSET -18.578728 -0.527832 5.208049
									CHANNELS 3 Xrotation Yrotation Zrotation
									JOINT newVegas:RightHandIndex2
									{
										OFFSET -3.192009 0.000000 0.000000
										CHANNELS 3 Xrotation Yrotation Zrotation
										JOINT newVegas:RightHandIndex3
										{
											OFFSET -3.835129 0.000000 0.000000
											CHANNELS 3 Xrotation Yrotation Zrotation
											End Site
											{
												OFFSET 0.034599 3.816971 0.371180
											}
										}
									}
								}
								JOINT newVegas:RightHandMiddle1
								{
									OFFSET -18.476105 0.000000 0.000000
									CHANNELS 3 Xrotation Yrotation Zrotation
									JOINT newVegas:RightHandMiddle2
									{
										OFFSET -3.324875 0.000000 0.000000
										CHANNELS 3 Xrotation Yrotation Zrotation
										JOINT newVegas:RightHandMiddle3
										{
											OFFSET -4.596550 0.000000 0.000000
											CHANNELS 3 Xrotation Yrotation Zrotation
											End Site
											{
												OFFSET -0.057701 4.578827 0.399218
											}
										}
									}
								}
								JOINT newVegas:RightHandRing1
								{
									OFFSET -17.732719 0.121887 -4.201567
									CHANNELS 3 Xrotation Yrotation Zrotation
									JOINT newVegas:RightHandRing2
									{
										OFFSET -2.733170 0.000000 0.000000
										CHANNELS 3 Xrotation Yrotation Zrotation
										JOINT newVegas:RightHandRing3
										{
											OFFSET -3.178268 0.000000 0.000000
											CHANNELS 3 Xrotation Yrotation Zrotation
											End Site
											{
												OFFSET -0.119102 3.170624 0.185394
											}
										}
									}
								}
								JOINT newVegas:RightHandPinky1
								{
									OFFSET -15.989624 -0.606689 -7.535461
									CHANNELS 3 Xrotation Yrotation Zrotation
									JOINT newVegas:RightHandPinky2
									{
										OFFSET -2.538986 0.000000 0.000000
										CHANNELS 3 Xrotation Yrotation Zrotation
										JOINT newVegas:RightHandPinky3
										{
											OFFSET -2.593102 0.000000 0.000000
											CHANNELS 3 Xrotation Yrotation Zrotation
											End Site
											{
												OFFSET 0.150902 2.584198 0.152708
											}
										}
									}
								}
							}
							JOINT newVegas:Right_CapeC
							{
								OFFSET -15.715958 -8.608795 -6.935905
								CHANNELS 3 Xrotation Yrotation Zrotation
								JOINT newVegas:Right_CapeC1
								{
									OFFSET 0.000000 -8.688499 0.000000
									CHANNELS 3 Xrotation Yrotation Zrotation
									End Site
									{
										OFFSET 0.000000 8.688499 0.000000
									}
								}
							}
							JOINT newVegas:Right_Sleeve
							{
								OFFSET -0.267448 -0.649994 0.577675
								CHANNELS 3 Xrotation Yrotation Zrotation
								End Site
								{
									OFFSET 0.000000 15.991302 0.000000
								}
							}
						}
						JOINT newVegas:Right_CapeA
						{
							OFFSET -5.115540 -8.608795 -10.395824
							CHANNELS 3 Xrotation Yrotation Zrotation
							JOINT newVegas:Right_CapeA1
							{
								OFFSET 0.000000 -8.688499 0.000000
								CHANNELS 3 Xrotation Yrotation Zrotation
								End Site
								{
									OFFSET 0.000000 8.688499 0.000000
								}
							}
						}
						JOINT newVegas:Right_CapeB
						{
							OFFSET -26.118187 -8.608795 -7.079266
							CHANNELS 3 Xrotation Yrotation Zrotation
							JOINT newVegas:Right_CapeB1
							{
								OFFSET 0.000000 -8.688499 0.000000
								CHANNELS 3 Xrotation Yrotation Zrotation
								End Site
								{
									OFFSET 0.000000 8.688499 0.000000
								}
							}
						}
					}
				}
				JOINT newVegas:Left_Collar
				{
					OFFSET 18.625099 8.655502 8.828100
					CHANNELS 3 Xrotation Yrotation Zrotation
					JOINT newVegas:Left_Collar1
					{
						OFFSET 14.783401 10.540405 -1.259500
						CHANNELS 3 Xrotation Yrotation Zrotation
						End Site
						{
							OFFSET 0.000000 18.199875 0.000000
						}
					}
				}
				JOINT newVegas:Collar_Back
				{
					OFFSET 0.000000 15.630707 -20.132601
					CHANNELS 3 Xrotation Yrotation Zrotation
					End Site
					{
						OFFSET 0.000000 22.523010 0.000000
					}
				}
				JOINT newVegas:Left_Peck
				{
					OFFSET 17.239599 -5.132599 25.482599
					CHANNELS 3 Xrotation Yrotation Zrotation
					End Site
					{
						OFFSET 0.000000 22.523010 0.000000
					}
				}
				JOINT newVegas:Right_Peck
				{
					OFFSET -17.239599 -5.132202 25.482599
					CHANNELS 3 Xrotation Yrotation Zrotation
					End Site
					{
						OFFSET 0.000000 22.523010 0.000000
					}
				}
				JOINT newVegas:Right_Collar
				{
					OFFSET -18.625099 8.655792 8.828100
					CHANNELS 3 Xrotation Yrotation Zrotation
					JOINT newVegas:Right_Collar1
					{
						OFFSET -14.783401 10.539993 -1.259500
						CHANNELS 3 Xrotation Yrotation Zrotation
						End Site
						{
							OFFSET 0.000000 18.199631 0.000000
						}
					}
				}
			}
		}
		JOINT newVegas:Belly
		{
			OFFSET 0.000000 -6.540398 9.014299
			CHANNELS 3 Xrotation Yrotation Zrotation
			End Site
			{
				OFFSET 0.000000 11.566666 0.000000
			}
		}
	}
	JOINT newVegas:ElvisFacialAnim_Joint
	{
		OFFSET 1.000000 -95.330101 -8.825800
		CHANNELS 3 Xrotation Yrotation Zrotation
		End Site
		{
			OFFSET 0.000000 35.315800 0.000000
		}
	}
}
MOTION
Frames: 4
Frame Time: 0.016667
-3.916322 83.274239 2.332586 3.004778 -58.203211 6.441630 0.000000 0.000000 -0.000000 -38.300760 6.320369 29.635480 47.031129 -9.811646 -10.643191 -10.044843 -1.887268 -11.913329 0.000000 -0.000002 0.000000 0.000001 0.000004 -0.000000 -34.547930 -3.820889 -30.692230 55.034908 4.454544 -7.825823 -22.924355 0.235357 25.816990 -0.000000 -0.000001 -0.000000 0.000001 -0.000002 0.000001 11.191379 0.081165 -2.660826 8.434584 0.027695 -5.592315 8.457043 0.027884 -5.591871 -3.775685 5.323478 1.581316 -3.775669 5.323461 1.581319 0.000002 -0.000002 0.000001 -3.775594 5.323419 1.581321 -3.775750 5.323519 1.581320 0.000001 -0.000003 0.000001 0.000002 -0.000002 0.000001 -6.221674 -11.503783 -4.023841 -23.061664 9.569067 -36.639737 0.046304 -43.170829 -0.011011 22.743596 -5.684974 15.978978 -1.064229 -7.954923 8.490092 2.373393 19.986103 -2.038329 0.000001 0.000001 -0.000010 13.340886 -1.006659 10.682282 -0.167594 0.303426 -31.105668 0.000001 -0.000000 0.000002 8.495430 -0.329533 -0.915311 0.231521 0.661188 -29.901810 0.000001 -0.000002 0.000001 6.111750 3.150884 -16.210959 0.047080 0.322414 -30.125451 -0.000001 -0.000001 0.000003 -5.636025 7.709903 -13.878615 0.224362 0.276545 -46.588372 0.000000 -0.000003 0.000000 0.000002 0.000000 0.000005 0.000002 0.000000 0.000005 0.000001 0.000000 0.000005 0.000001 -0.000003 0.000003 0.000002 -0.000003 0.000000 0.000001 -0.000003 0.000003 0.000001 -0.000002 0.000003 -5.488246 10.658257 2.466549 -41.473158 -26.756190 30.079463 24.953650 111.863943 -23.306629 -8.702480 12.422781 -9.802160 0.264993 10.061088 -10.888498 1.383790 -17.412864 3.016276 0.000002 -0.000001 0.000001 19.443609 11.174421 -13.340189 -0.118666 -0.322696 18.035605 0.000001 0.000001 0.000001 4.320454 2.436981 -4.811719 0.349126 -0.461252 26.890299 0.000002 -0.000000 0.000002 -7.005622 -10.695131 5.719854 0.111878 -0.089180 26.155899 0.000002 0.000003 -0.000002 -19.433526 -20.238201 5.987859 0.223778 -0.085781 36.844629 -0.000001 -0.000000 -0.000002 -0.000002 0.000001 0.000002 -0.000002 0.000003 0.000002 -0.000002 0.000001 0.000001 0.000002 0.000002 0.000004 0.000002 0.000003 0.000002 0.000002 0.000002 0.000004 0.000002 0.000003 0.000003 -0.000000 -0.000001 -0.000001 -0.000000 -0.000001 -0.000001 -0.000000 -0.000001 -0.000001 -0.000000 -0.000001 -0.000001 -0.000000 -0.000001 -0.000001 -0.000000 -0.000001 -0.000001 -0.000000 -0.000001 -0.000001 -0.000000 0.000002 0.000000 0.000000 0.000000 -0.000000 
-3.906403 83.274353 2.365599 3.028282 -58.173015 6.461461 0.000000 0.000002 -0.000000 -38.336663 6.322120 29.607822 47.062418 -9.831695 -10.650053 -10.063852 -1.890905 -11.871532 -0.000000 0.000000 0.000000 -0.000002 0.000001 0.000000 -34.513151 -3.824509 -30.721754 54.980902 4.435131 -7.822679 -22.909146 0.227981 25.859195 0.000000 0.000001 -0.000000 0.000004 -0.000000 0.000003 11.191392 0.079977 -2.664675 8.434582 0.027696 -5.592320 8.457057 0.027857 -5.591858 -3.774272 5.317995 1.585857 -3.774279 5.318005 1.585858 0.000001 -0.000001 0.000001 -3.774196 5.318014 1.585848 -3.774265 5.317979 1.585856 0.000000 0.000000 0.000000 0.000001 -0.000001 0.000001 -6.224957 -11.506072 -4.040196 -23.270321 9.617857 -36.667867 0.069786 -43.129530 0.031124 23.501482 -5.369444 16.129534 -1.038532 -7.796617 8.549068 2.420512 20.133379 -1.982849 0.000002 0.000001 -0.000003 13.341390 -1.007216 10.512654 -0.167402 0.303517 -31.275375 -0.000002 -0.000001 0.000000 8.492725 -0.327847 -1.084968 0.232460 0.661765 -30.071513 -0.000000 0.000001 0.000002 6.109962 3.152847 -16.380443 0.047149 0.323605 -30.295174 0.000001 -0.000002 -0.000001 -5.636744 7.710936 -14.047787 0.225083 0.277109 -46.757976 -0.000000 -0.000002 0.000000 0.000002 0.000000 0.000005 0.000002 0.000000 0.000005 0.000001 -0.000000 0.000005 -0.000002 0.000001 -0.000002 -0.000001 0.000001 -0.000004 -0.000002 0.000001 -0.000002 -0.000003 0.000002 -0.000001 -5.494063 10.657938 2.495527 -41.054430 -26.626313 30.531601 28.810199 112.648261 -27.515755 -7.502678 11.836825 -10.784954 0.243515 10.220465 -10.828477 1.330394 -17.266314 3.075578 -0.000003 -0.000001 0.000001 19.443337 11.174222 -13.513174 -0.118824 -0.322577 17.863211 0.000000 -0.000002 0.000001 4.323249 2.438533 -4.984194 0.348174 -0.460553 26.717931 0.000002 0.000000 -0.000001 -7.004213 -10.693738 5.546730 0.111869 -0.088028 25.983448 -0.000002 0.000002 0.000001 -19.432983 -20.237553 5.812506 0.223212 -0.085059 36.672191 0.000002 -0.000002 0.000002 0.000002 0.000001 0.000000 0.000001 -0.000001 0.000003 0.000000 0.000001 0.000000 0.000000 0.000002 -0.000002 0.000000 0.000003 -0.000004 0.000000 0.000002 -0.000002 0.000001 0.000003 -0.000002 0.000001 0.000000 0.000002 0.000001 0.000000 0.000002 0.000001 0.000000 0.000002 0.000001 0.000000 0.000002 0.000001 0.000000 0.000002 0.000001 0.000000 0.000002 0.000001 0.000000 0.000002 -0.000000 0.000002 -0.000000 0.000000 0.000002 -0.000000 
-3.877141 83.277420 2.456435 3.049476 -58.142293 6.481984 -0.000000 -0.000001 -0.000000 -38.380182 6.334602 29.540001 47.163095 -9.852661 -10.667174 -10.142985 -1.895500 -11.776655 -0.000000 0.000001 -0.000000 -0.000000 -0.000003 0.000002 -34.433009 -3.830319 -30.811243 54.835928 4.442501 -7.810920 -22.847575 0.219101 25.949704 0.000000 0.000001 0.000000 -0.000001 0.000002 0.000000 11.191443 0.076984 -2.676149 8.427933 0.021792 -5.590526 8.450537 0.024358 -5.590740 -3.769860 5.302081 1.598830 -3.769860 5.302057 1.598836 0.000001 0.000002 -0.000001 -3.769855 5.302093 1.598824 -3.769781 5.302093 1.598817 -0.000000 0.000000 -0.000000 0.000001 0.000002 -0.000002 -6.234552 -11.512578 -4.088056 -23.549886 9.594447 -36.642565 0.138498 -42.979262 0.153761 24.249767 -5.074730 16.216145 -1.011773 -7.630828 8.610742 2.469884 20.287605 -1.924795 0.000002 0.000001 -0.000008 13.341958 -1.007891 10.334927 -0.167216 0.303595 -31.453052 -0.000000 -0.000002 0.000003 8.489889 -0.326114 -1.262658 0.233444 0.662272 -30.249286 -0.000000 0.000001 -0.000004 6.109454 3.154861 -16.558096 0.047215 0.324735 -30.472851 -0.000001 -0.000000 -0.000002 -5.635091 7.712076 -14.225268 0.225737 0.277667 -46.935769 -0.000001 0.000004 -0.000000 0.000002 0.000000 -0.000003 0.000002 0.000000 -0.000003 0.000002 -0.000000 -0.000003 -0.000000 0.000001 -0.000001 0.000000 0.000001 -0.000004 -0.000000 0.000001 -0.000001 -0.000001 0.000002 -0.000001 -5.511178 10.663432 2.580821 -40.669429 -26.535577 30.926591 30.091894 112.878486 -29.366330 -7.446041 11.442795 -11.863734 0.220536 10.390403 -10.764399 1.272169 -17.106784 3.140219 0.000001 -0.000001 -0.000002 19.443045 11.174014 -13.701392 -0.118995 -0.322428 17.675438 -0.000000 -0.000001 0.000002 4.326286 2.440261 -5.171986 0.347191 -0.459893 26.530155 -0.000001 0.000001 0.000001 -7.002680 -10.692172 5.358381 0.111905 -0.086788 25.795765 0.000001 0.000001 -0.000002 -19.432429 -20.236770 5.622087 0.222548 -0.084391 36.484459 -0.000003 0.000001 0.000002 -0.000000 0.000004 -0.000002 -0.000003 0.000004 0.000001 -0.000002 0.000005 -0.000000 -0.000000 -0.000003 0.000000 -0.000000 -0.000002 -0.000002 -0.000000 -0.000003 0.000000 0.000000 -0.000002 -0.000000 0.000001 0.000001 -0.000000 0.000001 0.000001 -0.000000 0.000001 0.000001 -0.000000 0.000001 0.000001 -0.000000 0.000001 0.000001 -0.000000 0.000001 0.000001 -0.000000 0.000001 0.000001 -0.000000 0.000001 -0.000001 -0.000000 -0.000000 -0.000001 -0.000000 
-3.829815 83.283348 2.601110 3.070050 -58.111379 6.504274 0.000000 0.000004 0.000000 -38.430312 6.359036 29.433481 47.326309 -9.873119 -10.693354 -10.279047 -1.901396 -11.628282 -0.000000 0.000001 -0.000000 -0.000001 -0.000000 0.000002 -34.308973 -3.838031 -30.954171 54.602762 4.470785 -7.790912 -22.742469 0.209398 26.083739 0.000000 0.000001 -0.000000 0.000000 -0.000001 -0.000004 11.191221 0.068386 -2.693966 8.417022 0.011614 -5.587464 8.439833 0.017446 -5.588561 -3.762932 5.276370 1.619564 -3.762957 5.276364 1.619569 0.000001 0.000003 -0.000000 -3.763008 5.276384 1.619565 -3.762858 5.276398 1.619551 -0.000000 0.000002 -0.000000 0.000001 0.000003 -0.000000 -6.250113 -11.523035 -4.165731 -23.890543 9.502019 -36.578901 0.247195 -42.732303 0.348578 24.987938 -4.799903 16.250168 -0.984038 -7.458089 8.674859 2.521154 20.448128 -1.864332 0.000002 0.000001 -0.000004 13.342516 -1.008579 10.149950 -0.167018 0.303734 -31.638089 0.000000 0.000000 0.000001 8.486903 -0.324312 -1.447680 0.234528 0.663167 -30.434288 0.000001 0.000001 -0.000002 6.108907 3.157009 -16.743042 0.047347 0.325752 -30.657912 0.000003 0.000001 0.000001 -5.633366 7.713218 -14.410120 0.226466 0.278263 -47.120792 0.000000 0.000000 0.000000 -0.000000 -0.000001 0.000001 -0.000000 -0.000001 0.000001 -0.000000 -0.000001 0.000001 -0.000001 0.000001 0.000003 -0.000000 0.000002 0.000002 -0.000001 0.000001 0.000003 -0.000002 0.000002 0.000003 -5.532800 10.672745 2.720146 -40.331809 -26.475731 31.254078 31.604409 113.060845 -31.458113 -7.371026 11.217551 -13.032102 0.196113 10.570075 -10.696630 1.209436 -16.935280 3.209926 -0.000000 -0.000008 -0.000001 19.442741 11.173822 -13.903695 -0.119172 -0.322241 17.473487 -0.000002 -0.000002 0.000003 4.329544 2.442096 -5.373970 0.346107 -0.458878 26.328264 -0.000000 -0.000000 -0.000000 -7.000957 -10.690034 5.156141 0.111897 -0.085447 25.593839 -0.000001 -0.000003 -0.000003 -19.431118 -20.232627 5.419740 0.221917 -0.083616 36.282498 -0.000003 -0.000002 -0.000001 -0.000001 0.000002 0.000001 -0.000002 0.000001 0.000001 -0.000001 0.000001 0.000000 -0.000000 -0.000001 0.000003 -0.000000 0.000000 0.000003 -0.000000 -0.000001 0.000003 -0.000000 0.000000 0.000004 0.000001 0.000000 -0.000000 0.000001 0.000000 -0.000000 0.000001 0.000000 -0.000000 0.000001 0.000000 -0.000000 0.000001 0.000000 -0.000000 0.000001 0.000000 -0.000000 0.000001 0.000000 -0.000000 -0.000000 -0.000001 0.000000 0.000000 0.000004 0.000000 
